<?xml version="1.0" encoding="utf-8"?>
<!-- Generator: Adobe Illustrator 18.1.1, SVG Export Plug-In . SVG Version: 6.00 Build 0)  -->
<svg version="1.1" id="Layer_1" xmlns="http://www.w3.org/2000/svg" xmlns:xlink="http://www.w3.org/1999/xlink" x="0px" y="0px"
	 viewBox="0 242.3 419.5 111" enable-background="new 0 242.3 419.5 111" xml:space="preserve">
<g>
	<g enable-background="new    ">
		<path fill="#FFFFFF" d="M25.3,263.9h-4.7v-7.6h30.8c3.4,0,4.9,1.4,4.9,4.7v7.4h-8.5v-2.9c0-1-0.6-1.5-1.6-1.5H34.7v12.7h16.5v7.6
			H34.7v11.5c0,1,0.6,1.5,1.6,1.5H48c1,0,1.6-0.5,1.6-1.5v-2.9h8.5v7.4c0,3.3-1.5,4.7-4.9,4.7h-23c-3.4,0-4.9-1.4-4.9-4.7
			C25.3,300.3,25.3,263.9,25.3,263.9z"/>
	</g>
	<g enable-background="new    ">
		<path fill="#FFFFFF" d="M75.8,280.3l-9.5-14.7c-0.9-1.5-1.5-1.6-3.1-1.6H61v-7.6h6c3.4,0,4.8,0.8,6.5,3.6l4.9,8.1
			c1.6,2.8,3.2,5.9,3.2,5.9h0.1c0,0,1.4-3.1,3.1-5.9l5-8.1c1.7-2.9,3.2-3.6,6.6-3.6h5.8v7.6H100c-1.6,0-2.2,0.2-3.1,1.6l-9.5,14.7
			l15.9,24.7H92.7l-7.9-12.8c-1.7-2.9-3.2-5.7-3.2-5.7h-0.1c0,0-1.4,2.9-3.1,5.7L70.6,305H60L75.8,280.3z"/>
	</g>
	<g enable-background="new    ">
		<path fill="#FFFFFF" d="M110.7,263.9H106v-7.6h23.3c9.5,0,16.2,6.4,16.2,15.8c0,9.5-6.7,16-16.2,16H120v16.8h-9.4L110.7,263.9
			L110.7,263.9z M127.7,280.5c5.3,0,8.3-3.3,8.3-8.4c0-5-3-8.2-8.2-8.2h-7.7v16.6H127.7z"/>
	</g>
	<g enable-background="new    ">
		<path fill="#FFFFFF" d="M154.1,263.9h-4.7v-7.6h30.8c3.4,0,4.9,1.4,4.9,4.7v7.4h-8.5v-2.9c0-1-0.6-1.5-1.6-1.5h-11.5v12.7H180v7.6
			h-16.5v11.5c0,1,0.6,1.5,1.6,1.5h11.8c1,0,1.6-0.5,1.6-1.5v-2.9h8.5v7.4c0,3.3-1.5,4.7-4.9,4.7H159c-3.4,0-4.9-1.4-4.9-4.7V263.9z
			"/>
	</g>
	<g enable-background="new    ">
		<path fill="#FFFFFF" d="M195.6,263.9h-4.7v-7.6h22.8c9.3,0,15.9,5.5,15.9,14.7c0,8.8-6.3,12.4-8.5,12.8v0.1c0,0,1.6,0.7,2.5,2.5
			l5,9.4c0.8,1.4,2,1.6,3.6,1.6h0.9v7.6h-5c-3.8,0-5.5-0.5-7.1-3.6l-6.5-12.3c-1.1-1.9-2.2-2.3-4.8-2.3H205V305h-9.4V263.9z
			 M212.5,279.1c4.7,0,7.5-2.8,7.5-7.7c0-4.8-2.8-7.5-7.4-7.5H205v15.2H212.5z"/>
	</g>
	<g enable-background="new    ">
		<path fill="#FFFFFF" d="M250.9,263.9h-7.8c-1,0-1.6,0.5-1.6,1.5v2.9h-8.3v-7.7c0-3.2,1.1-4.4,4.6-4.4h35.5c3.4,0,4.6,1.2,4.6,4.4
			v7.7h-8.3v-2.9c0-1-0.6-1.5-1.6-1.5h-7.8V305h-9.4L250.9,263.9L250.9,263.9z"/>
	</g>
	<g enable-background="new    ">
		<path fill="#FFFFFF" d="M286.1,263.9h-4.7v-7.6h30.8c3.4,0,4.9,1.4,4.9,4.7v7.4h-8.5v-2.9c0-1-0.6-1.5-1.6-1.5h-11.5v12.7H312v7.6
			h-16.5v11.5c0,1,0.6,1.5,1.6,1.5h11.8c1,0,1.6-0.5,1.6-1.5v-2.9h8.5v7.4c0,3.3-1.5,4.7-4.9,4.7H291c-3.4,0-4.9-1.4-4.9-4.7V263.9z
			"/>
	</g>
	<g enable-background="new    ">
		<path fill="#FFFFFF" d="M327.6,263.9h-4.7v-7.6h30.8c3.4,0,4.9,1.4,4.9,4.7v7.4h-8.5v-2.9c0-1-0.6-1.5-1.6-1.5H337v12.7h16.5v7.6
			H337v11.5c0,1,0.6,1.5,1.6,1.5h11.8c1,0,1.6-0.5,1.6-1.5v-2.9h8.5v7.4c0,3.3-1.5,4.7-4.9,4.7h-23.1c-3.4,0-4.9-1.4-4.9-4.7V263.9z
			"/>
	</g>
	<g enable-background="new    ">
		<path fill="#FFFFFF" d="M369.6,291.9c0,0,5.2,5.8,12.3,5.8c3.9,0,7.3-2,7.3-5.8c0-8.3-24-7.6-24-22.8c0-7.9,7.2-13.7,17-13.7
			c6,0,15.1,2.7,15.1,9.6v4.5h-8.5v-2.2c0-2.3-3.4-3.8-6.7-3.8c-4.3,0-7.5,2.1-7.5,5.2c0,8.3,24,6.6,24,22.6
			c0,7.7-6.2,14.3-16.9,14.3c-11.3,0-17.5-7.5-17.5-7.5L369.6,291.9z"/>
	</g>
	<g>
		<path fill="#F6BAA4" d="M24.3,320.2c-0.2-0.5-0.5-0.7-1.1-0.7h-0.5v-2.7h2.2c1.6,0,2.2,0.3,2.7,1.8l3.2,10
			c0.3,0.8,0.4,1.8,0.4,1.8h0.1c0,0,0.3-0.9,0.5-1.8l3.9-11.7h3.2l3.9,11.7c0.3,0.8,0.5,1.8,0.5,1.8h0.1c0,0,0.2-0.9,0.4-1.8l3.2-10
			c0.5-1.4,1.1-1.8,2.7-1.8h2.2v2.8h-0.5c-0.6,0-0.9,0.2-1.1,0.7l-4.9,13.3h-3.9l-3.7-10.8c-0.3-0.8-0.5-1.8-0.5-1.8h-0.1
			c0,0-0.3,0.9-0.5,1.8L33,333.6h-4L24.3,320.2z"/>
		<path fill="#F6BAA4" d="M68.5,316.5c5,0,7.8,3.5,7.8,7.9c0,0.4-0.1,1.3-0.1,1.3H62.9c0.3,3.6,3,5.6,6.2,5.6c3.1,0,5.3-1.9,5.3-1.9
			l1.5,2.3c0,0-2.7,2.4-7,2.4c-5.7,0-9.6-3.8-9.6-8.8C59.4,319.9,63.3,316.5,68.5,316.5z M72.7,323.3c-0.1-2.8-2-4.3-4.3-4.3
			c-2.6,0-4.8,1.5-5.3,4.3H72.7z"/>
		<path fill="#F6BAA4" d="M87,313.7c0-0.5-0.3-0.8-0.8-0.8h-1.5v-2.8h3.4c1.6,0,2.3,0.6,2.3,2.1v5.5c0,0.8-0.1,1.4-0.1,1.4h0.1
			c0,0,1.6-2.8,5.8-2.8c4.9,0,7.9,3.6,7.9,8.8c0,5.4-3.4,8.8-8.2,8.8c-4,0-5.7-2.9-5.7-2.9h-0.1c0,0,0.1,0.5,0.1,1.3v1.2h-3.4v-19.9
			L87,313.7L87,313.7z M95.5,331.2c2.9,0,5.2-2.2,5.2-6c0-3.6-2.1-6-5.1-6c-2.7,0-5.2,1.8-5.2,6C90.4,328.3,92,331.2,95.5,331.2z"/>
		<path fill="#F6BAA4" d="M121.3,316.5c4.2,0,5.5,2.6,5.5,2.6h0.1c0,0-0.1-0.5-0.1-1.1v-4.2c0-0.5-0.3-0.8-0.8-0.8h-1.4v-2.8h3.4
			c1.6,0,2.3,0.6,2.3,2.1v17.8c0,0.5,0.3,0.8,0.8,0.8h1.4v2.8h-3.4c-1.6,0-2.2-0.7-2.2-1.8c0-0.5,0-0.8,0-0.8h-0.1c0,0-1.5,3-6,3
			c-4.9,0-8-3.6-8-8.8C113.1,319.9,116.5,316.5,121.3,316.5z M126.9,325.2c0-3-1.7-6-5.1-6c-2.9,0-5.2,2.2-5.2,6c0,3.6,2.1,6,5.1,6
			C124.4,331.2,126.9,329.5,126.9,325.2z"/>
		<path fill="#F6BAA4" d="M150,316.5c5,0,7.8,3.5,7.8,7.9c0,0.4-0.1,1.3-0.1,1.3h-13.2c0.3,3.6,3,5.6,6.2,5.6c3.1,0,5.3-1.9,5.3-1.9
			l1.5,2.3c0,0-2.7,2.4-7,2.4c-5.7,0-9.6-3.8-9.6-8.8C141,319.9,144.9,316.5,150,316.5z M154.3,323.3c-0.1-2.8-2-4.3-4.3-4.3
			c-2.6,0-4.8,1.5-5.3,4.3H154.3z"/>
		<path fill="#F6BAA4" d="M167.6,320.2c-0.3-0.5-0.5-0.7-1.1-0.7h-0.4v-2.7h1.8c1.6,0,2.2,0.3,2.8,1.7l3.9,9.6
			c0.3,0.9,0.7,2.2,0.7,2.2h0.1c0,0,0.3-1.3,0.7-2.2l3.9-9.6c0.5-1.3,1.2-1.7,2.8-1.7h1.7v2.8h-0.3c-0.6,0-0.9,0.2-1.2,0.7
			l-5.5,13.3h-4L167.6,320.2z"/>
		<path fill="#F6BAA4" d="M201,316.5c5,0,7.8,3.5,7.8,7.9c0,0.4-0.1,1.3-0.1,1.3h-13.2c0.3,3.6,3,5.6,6.2,5.6c3.1,0,5.3-1.9,5.3-1.9
			l1.5,2.3c0,0-2.7,2.4-7,2.4c-5.7,0-9.6-3.8-9.6-8.8C191.9,319.9,195.8,316.5,201,316.5z M205.2,323.3c-0.1-2.8-2-4.3-4.3-4.3
			c-2.6,0-4.8,1.5-5.3,4.3H205.2z"/>
		<path fill="#F6BAA4" d="M219.6,313.7c0-0.5-0.3-0.8-0.8-0.8h-1.4v-2.8h3.4c1.6,0,2.3,0.6,2.3,2.1V330c0,0.5,0.3,0.8,0.8,0.8h1.4
			v2.8h-3.4c-1.6,0-2.3-0.7-2.3-2.1V313.7z"/>
		<path fill="#F6BAA4" d="M243.5,316.5c5.4,0,9.7,3.7,9.7,8.7c0,5.1-4.4,8.8-9.7,8.8c-5.3,0-9.7-3.7-9.7-8.8
			C233.8,320.1,238.1,316.5,243.5,316.5z M243.5,331.2c3.4,0,6.2-2.5,6.2-6c0-3.4-2.8-6-6.2-6c-3.4,0-6.2,2.5-6.2,6
			C237.4,328.7,240.1,331.2,243.5,331.2z"/>
		<path fill="#F6BAA4" d="M263.9,320.3c0-0.5-0.3-0.8-0.8-0.8h-1.4v-2.7h3.3c1.6,0,2.2,0.7,2.2,1.7c0,0.5,0,0.9,0,0.9h0.1
			c0,0,1.5-3,6-3c4.9,0,8,3.6,8,8.8c0,5.4-3.5,8.8-8.2,8.8c-4,0-5.5-2.7-5.5-2.7h-0.1c0,0,0.1,0.6,0.1,1.4v7.5H264L263.9,320.3
			L263.9,320.3z M272.4,331.2c2.9,0,5.2-2.2,5.2-6c0-3.6-2.1-6-5.1-6c-2.7,0-5.2,1.8-5.2,6C267.2,328.3,269,331.2,272.4,331.2z"/>
		<path fill="#F6BAA4" d="M291.7,320.3c0-0.5-0.3-0.8-0.8-0.8h-1.5v-2.7h3.4c1.6,0,2.3,0.7,2.3,1.8v0.7c0,0.5,0,0.9,0,0.9h0.1
			c0.8-1.9,3.4-3.9,6.2-3.9c3.1,0,4.8,1.3,5.5,3.8h0.1c1-2,3.5-3.8,6.5-3.8c4,0,6,2.2,6,6.5v7.2c0,0.5,0.3,0.8,0.8,0.8h1.4v2.8H318
			c-1.6,0-2.3-0.7-2.3-2.1v-8c0-2.3-0.5-4.2-3.2-4.2c-2.5,0-4.4,2-5,4.3c-0.2,0.7-0.3,1.4-0.3,2.3v7.6h-3.5v-10
			c0-2.2-0.3-4.2-3.1-4.2c-2.6,0-4.5,2-5.2,4.4c-0.2,0.7-0.3,1.4-0.3,2.2v7.6h-3.4V320.3L291.7,320.3z"/>
		<path fill="#F6BAA4" d="M338.8,316.5c5,0,7.8,3.5,7.8,7.9c0,0.4-0.1,1.3-0.1,1.3h-13.2c0.3,3.6,3,5.6,6.2,5.6
			c3.1,0,5.3-1.9,5.3-1.9l1.5,2.3c0,0-2.7,2.4-7,2.4c-5.7,0-9.6-3.8-9.6-8.8C329.8,319.9,333.7,316.5,338.8,316.5z M343,323.3
			c-0.1-2.8-2-4.3-4.3-4.3c-2.6,0-4.8,1.5-5.3,4.3H343z"/>
		<path fill="#F6BAA4" d="M357.5,320.3c0-0.5-0.3-0.8-0.8-0.8h-1.4v-2.7h3.4c1.5,0,2.3,0.7,2.3,1.8v0.7c0,0.5-0.1,0.9-0.1,0.9h0.1
			c0.8-1.4,2.9-3.9,6.8-3.9c4.3,0,6.2,2.2,6.2,6.5v7.2c0,0.5,0.3,0.8,0.8,0.8h1.4v2.8h-3.4c-1.6,0-2.3-0.7-2.3-2.1v-7.9
			c0-2.3-0.5-4.2-3.4-4.2c-2.8,0-5,1.7-5.7,4.1c-0.3,0.7-0.3,1.4-0.3,2.3v7.9h-3.4L357.5,320.3L357.5,320.3z"/>
		<path fill="#F6BAA4" d="M386.3,319.4H384v-2.6h2.4v-4.6h3.4v4.6h4.3v2.6h-4.3v7.7c0,3.4,2.5,3.8,3.9,3.8c0.5,0,0.8-0.1,0.8-0.1
			v2.9c0,0-0.5,0.1-1.2,0.1c-2.3,0-6.9-0.7-6.9-6.3L386.3,319.4L386.3,319.4z"/>
	</g>
</g>
</svg>
